<svg width="454" height="57" viewBox="0 0 454 57" fill="none" xmlns="http://www.w3.org/2000/svg">
<path d="M3.65625 46H18.25C21.4583 46 24.2083 45.4896 26.5 44.4688C28.7917 43.4479 30.5521 41.9896 31.7812 40.0938C33.0312 38.1979 33.6562 35.9271 33.6562 33.2812V33.2188C33.6562 31.2188 33.2188 29.4375 32.3438 27.875C31.4896 26.2917 30.2604 25.0104 28.6562 24.0312C27.0729 23.0312 25.2083 22.4271 23.0625 22.2188V22.0938C24.6667 21.8646 26.0938 21.2708 27.3438 20.3125C28.6146 19.3542 29.6146 18.1667 30.3438 16.75C31.0729 15.3333 31.4375 13.8333 31.4375 12.25V12.1875C31.4375 9.91667 30.8854 7.9375 29.7812 6.25C28.6979 4.54167 27.1562 3.22917 25.1562 2.3125C23.1771 1.375 20.8438 0.90625 18.1562 0.90625H3.65625V6.625H16.4688C19.0104 6.625 20.9688 7.17708 22.3438 8.28125C23.7396 9.38542 24.4375 10.9792 24.4375 13.0625V13.125C24.4375 15.375 23.625 17.1042 22 18.3125C20.375 19.5208 18.0208 20.125 14.9375 20.125H3.65625V25.5312H16.3438C18.5729 25.5312 20.4375 25.8125 21.9375 26.375C23.4375 26.9167 24.5625 27.7292 25.3125 28.8125C26.0833 29.8958 26.4688 31.25 26.4688 32.875V32.9375C26.4688 35.3333 25.6458 37.1562 24 38.4062C22.3542 39.6562 19.9688 40.2812 16.8438 40.2812H3.65625V46ZM0.15625 46H7.15625V0.90625H0.15625V46ZM50.955 46.6562C52.955 46.6562 54.7675 46.3854 56.3925 45.8438C58.0175 45.3021 59.4238 44.5625 60.6113 43.625C61.8196 42.6667 62.7988 41.5938 63.5488 40.4062C64.2988 39.2188 64.8092 37.9792 65.08 36.6875L65.1425 36.3438H58.705L58.6113 36.5938C58.3404 37.4271 57.8613 38.1875 57.1738 38.875C56.5071 39.5417 55.6633 40.0833 54.6425 40.5C53.6217 40.8958 52.4446 41.0938 51.1113 41.0938C49.2988 41.0938 47.7258 40.6979 46.3925 39.9062C45.0592 39.0938 44.0279 37.9375 43.2988 36.4375C42.5904 34.9167 42.2363 33.0938 42.2363 30.9688V28.3438C42.2363 26.1146 42.6008 24.2396 43.33 22.7188C44.0592 21.1771 45.0592 20.0104 46.33 19.2188C47.6008 18.4271 49.0383 18.0312 50.6425 18.0312C52.2675 18.0312 53.6946 18.4062 54.9238 19.1562C56.1738 19.9062 57.1425 21.0521 57.83 22.5938C58.5383 24.1146 58.8925 26.0312 58.8925 28.3438V30.9688L62.2363 26.5H38.7988V31.2812H65.5175V29C65.5175 25.7083 64.9133 22.8229 63.705 20.3438C62.4967 17.8438 60.7779 15.9167 58.5488 14.5625C56.3404 13.1875 53.6946 12.5 50.6113 12.5C47.5488 12.5 44.8821 13.2188 42.6113 14.6562C40.3404 16.0729 38.58 18.0729 37.33 20.6562C36.08 23.2188 35.455 26.2083 35.455 29.625V29.6562C35.455 33.1146 36.0696 36.125 37.2988 38.6875C38.5488 41.2292 40.33 43.1979 42.6425 44.5938C44.9758 45.9688 47.7467 46.6562 50.955 46.6562ZM78.4725 46.5938C79.9308 46.5938 81.2954 46.3646 82.5663 45.9062C83.8579 45.4271 85.0142 44.7604 86.035 43.9062C87.0558 43.0312 87.8892 42 88.535 40.8125H88.66V46H95.4725V23.3438C95.4725 21.1562 94.9308 19.25 93.8475 17.625C92.7642 16 91.2433 14.7396 89.285 13.8438C87.3267 12.9479 85.0038 12.5 82.3163 12.5C79.6288 12.5 77.3058 12.9375 75.3475 13.8125C73.3892 14.6875 71.8579 15.8854 70.7538 17.4062C69.6496 18.9062 69.0142 20.6042 68.8475 22.5L68.8163 22.8438H75.1913L75.2538 22.5625C75.5454 21.25 76.2746 20.1771 77.4413 19.3438C78.6288 18.5104 80.1913 18.0938 82.1288 18.0938C84.2329 18.0938 85.8475 18.6146 86.9725 19.6562C88.0975 20.6771 88.66 22.0938 88.66 23.9062V33.6875C88.66 35.1042 88.2954 36.3854 87.5663 37.5312C86.8371 38.6562 85.8371 39.5417 84.5663 40.1875C83.3163 40.8333 81.8996 41.1562 80.3163 41.1562C78.5038 41.1562 77.0454 40.7396 75.9413 39.9062C74.8579 39.0729 74.3163 37.9375 74.3163 36.5V36.4375C74.3163 35.0417 74.8579 33.9271 75.9413 33.0938C77.0454 32.2396 78.6079 31.75 80.6288 31.625L92.16 30.9062V26.1562L79.7225 26.9062C77.1392 27.0521 74.9308 27.5312 73.0975 28.3438C71.285 29.1562 69.8996 30.2604 68.9413 31.6562C67.9829 33.0312 67.5038 34.6771 67.5038 36.5938V36.6562C67.5038 38.6146 67.9621 40.3438 68.8788 41.8438C69.7954 43.3438 71.0767 44.5104 72.7225 45.3438C74.3683 46.1771 76.285 46.5938 78.4725 46.5938ZM111.271 46.6562C112.938 46.6562 114.417 46.4167 115.709 45.9375C117.021 45.4583 118.146 44.8021 119.084 43.9688C120.021 43.1146 120.771 42.1458 121.334 41.0625H121.49V46H128.271V13.125H121.49V32.3125C121.49 33.5833 121.302 34.75 120.927 35.8125C120.573 36.8542 120.052 37.75 119.365 38.5C118.677 39.2292 117.855 39.8021 116.896 40.2188C115.959 40.6146 114.886 40.8125 113.677 40.8125C111.344 40.8125 109.594 40.1562 108.427 38.8438C107.282 37.5104 106.709 35.6042 106.709 33.125V13.125H99.8962V34.4062C99.8962 36.9271 100.344 39.1042 101.24 40.9375C102.136 42.7708 103.427 44.1875 105.115 45.1875C106.823 46.1667 108.875 46.6562 111.271 46.6562ZM144.601 46.6562C145.289 46.6562 145.935 46.625 146.539 46.5625C147.143 46.5 147.643 46.4375 148.039 46.375V41.1562C147.789 41.1771 147.508 41.2083 147.195 41.25C146.903 41.2708 146.58 41.2812 146.226 41.2812C144.789 41.2812 143.705 40.9792 142.976 40.375C142.247 39.75 141.883 38.6042 141.883 36.9375V18.5H148.039V13.125H141.883V4.5625H134.945V13.125H130.226V18.5H134.945V37.3125C134.945 40.6042 135.737 42.9896 137.32 44.4688C138.924 45.9271 141.351 46.6562 144.601 46.6562ZM155.556 56.9688C157.723 56.9688 159.567 56.6562 161.087 56.0312C162.629 55.4062 163.942 54.3958 165.025 53C166.129 51.6042 167.087 49.7708 167.9 47.5L180.15 13.125H172.994L164.244 41.3438L165.431 39.875H163.775L164.962 41.3438L156.244 13.125H148.9L160.869 46.0312L160.306 47.5938C159.765 49.1771 159.015 50.2396 158.056 50.7812C157.119 51.3229 155.848 51.5938 154.244 51.5938C153.785 51.5938 153.358 51.5625 152.962 51.5C152.587 51.4583 152.275 51.4167 152.025 51.375V56.6562C152.442 56.7396 152.973 56.8125 153.619 56.875C154.265 56.9375 154.91 56.9688 155.556 56.9688ZM203.199 46.8125C207.803 46.8125 211.761 45.8646 215.074 43.9688C218.407 42.0729 220.97 39.3854 222.761 35.9062C224.574 32.4062 225.48 28.2604 225.48 23.4688V23.4062C225.48 18.6146 224.574 14.4792 222.761 11C220.97 7.52083 218.407 4.83333 215.074 2.9375C211.74 1.04167 207.782 0.09375 203.199 0.09375C198.678 0.09375 194.751 1.04167 191.417 2.9375C188.084 4.83333 185.501 7.52083 183.667 11C181.855 14.4792 180.949 18.6146 180.949 23.4062V23.4688C180.949 28.2604 181.855 32.4062 183.667 35.9062C185.48 39.3854 188.053 42.0729 191.386 43.9688C194.72 45.8646 198.657 46.8125 203.199 46.8125ZM203.199 37.3125C201.074 37.3125 199.22 36.75 197.636 35.625C196.053 34.5 194.824 32.9062 193.949 30.8438C193.095 28.7604 192.667 26.3021 192.667 23.4688V23.4062C192.667 20.5521 193.095 18.0938 193.949 16.0312C194.824 13.9688 196.053 12.3854 197.636 11.2812C199.24 10.1562 201.095 9.59375 203.199 9.59375C205.365 9.59375 207.24 10.1562 208.824 11.2812C210.407 12.4062 211.626 14 212.48 16.0625C213.355 18.125 213.792 20.5729 213.792 23.4062V23.4688C213.792 26.2812 213.365 28.7292 212.511 30.8125C211.657 32.875 210.438 34.4792 208.855 35.625C207.292 36.75 205.407 37.3125 203.199 37.3125ZM237.06 46H249.904L261.154 11.9688H249.56L243.747 36.7188H243.529L237.591 11.9688H225.685L237.06 46ZM276.984 46.7188C279.713 46.7188 282.036 46.375 283.953 45.6875C285.89 44.9792 287.484 44.0625 288.734 42.9375C290.005 41.8125 290.994 40.6146 291.703 39.3438C292.411 38.0521 292.89 36.8125 293.14 35.625L293.234 35.25H283.234L283.203 35.375C283.036 35.8542 282.703 36.3646 282.203 36.9062C281.723 37.4479 281.067 37.9062 280.234 38.2812C279.4 38.6562 278.39 38.8438 277.203 38.8438C275.828 38.8438 274.64 38.5417 273.64 37.9375C272.661 37.3125 271.9 36.4271 271.359 35.2812C270.838 34.1354 270.578 32.7604 270.578 31.1562V26.8438C270.578 25.2188 270.838 23.8333 271.359 22.6875C271.88 21.5208 272.609 20.6354 273.546 20.0312C274.505 19.4271 275.609 19.125 276.859 19.125C278.109 19.125 279.203 19.4271 280.14 20.0312C281.078 20.6146 281.807 21.4896 282.328 22.6562C282.848 23.8021 283.109 25.1979 283.109 26.8438V31.125L288.265 24.9688H265.14V31.5312H293.453V28.2812C293.453 24.8438 292.765 21.8542 291.39 19.3125C290.015 16.75 288.067 14.7708 285.546 13.375C283.025 11.9583 280.046 11.25 276.609 11.25C273.171 11.25 270.182 11.9688 267.64 13.4062C265.119 14.8438 263.161 16.8854 261.765 19.5312C260.39 22.1771 259.703 25.3229 259.703 28.9688V29C259.703 32.6667 260.39 35.8229 261.765 38.4688C263.161 41.1146 265.15 43.1562 267.734 44.5938C270.317 46.0104 273.4 46.7188 276.984 46.7188ZM295.814 46H306.908V27.9375C306.908 26.3333 307.178 24.9896 307.72 23.9062C308.283 22.8021 309.095 21.9688 310.158 21.4062C311.241 20.8438 312.564 20.5625 314.126 20.5625C314.793 20.5625 315.428 20.6146 316.033 20.7188C316.658 20.8229 317.199 20.9792 317.658 21.1875V11.6875C317.241 11.5417 316.783 11.4375 316.283 11.375C315.803 11.2917 315.303 11.25 314.783 11.25C312.762 11.25 311.095 11.8333 309.783 13C308.491 14.1667 307.605 15.8333 307.126 18H306.908V11.9688H295.814V46ZM319.831 46H331.3V29.1875H348.769V20.4062H331.3V10.125H350.519V0.90625H319.831V46ZM353.161 46H364.255V0.90625H353.161V46ZM384.241 46.7188C387.845 46.7188 390.939 46.0312 393.522 44.6562C396.127 43.2604 398.137 41.2396 399.554 38.5938C400.97 35.9479 401.679 32.75 401.679 29V28.9375C401.679 25.2292 400.96 22.0625 399.522 19.4375C398.085 16.7917 396.064 14.7708 393.46 13.375C390.856 11.9583 387.783 11.25 384.241 11.25C380.72 11.25 377.658 11.9583 375.054 13.375C372.45 14.7708 370.429 16.8021 368.991 19.4688C367.554 22.1146 366.835 25.2708 366.835 28.9375V29C366.835 32.7292 367.533 35.9167 368.929 38.5625C370.345 41.2083 372.356 43.2292 374.96 44.625C377.564 46.0208 380.658 46.7188 384.241 46.7188ZM384.272 38.3125C383.002 38.3125 381.897 37.9583 380.96 37.25C380.043 36.5208 379.335 35.4583 378.835 34.0625C378.335 32.6667 378.085 30.9792 378.085 29V28.9375C378.085 26.9792 378.335 25.3125 378.835 23.9375C379.356 22.5417 380.075 21.4792 380.991 20.75C381.929 20.0208 383.012 19.6562 384.241 19.6562C385.491 19.6562 386.575 20.0208 387.491 20.75C388.408 21.4792 389.116 22.5417 389.616 23.9375C390.137 25.3125 390.397 26.9792 390.397 28.9375V29C390.397 30.9792 390.147 32.6667 389.647 34.0625C389.168 35.4583 388.47 36.5208 387.554 37.25C386.637 37.9583 385.543 38.3125 384.272 38.3125ZM410.165 46H421.915L427.259 23.0938H427.478L432.884 46H444.821L453.603 11.9688H442.634L438.321 36H438.103L432.853 11.9688H422.259L417.071 36H416.853L412.54 11.9688H401.321L410.165 46Z" fill="black"/>
</svg>
